<svg xmlns="http://www.w3.org/2000/svg" viewBox="0 0 1316.3 144.67"><defs><style>.a{fill:#0f2c4e}.b{fill:#cd1f40}</style></defs><path class="a" d="M3.87 137.48v-10.09a18.27 18.27 0 0 0-.36-4.76 1.58 1.58 0 0 0-1.09-1 7.29 7.29 0 0 0-2-.22v-.82c.58 0 1.43 0 2.56.07s2 .07 2.56.07 1.5 0 2.72-.07 2.12-.07 2.72-.07v.82H9.73a2.79 2.79 0 0 0-1 .32 1.58 1.58 0 0 0-.79.86 18.45 18.45 0 0 0-.35 4.76V138c0 2.29.3 3.75.93 4.38s2.06.95 4.33.95h.32a9.27 9.27 0 0 0 4.76-.89 4.31 4.31 0 0 0 1.34-1.27 4.25 4.25 0 0 0 .62-1.34q.15-.62.36-1.86h.9l-.32 6.33c-.86-.05-1.48-.1-1.87-.15q-3.08 0-18.5.15v-.82h1.26a2.75 2.75 0 0 0 1-.32 1.51 1.51 0 0 0 .79-.86 18.32 18.32 0 0 0 .36-4.82zM41.73 144.67a13.23 13.23 0 0 1-9.18-3.43 11.24 11.24 0 0 1-3.81-8.73 11.37 11.37 0 0 1 3.92-8.79 13.26 13.26 0 0 1 9.21-3.56 13 13 0 0 1 9.06 3.45 11.25 11.25 0 0 1 3.79 8.64 11.67 11.67 0 0 1-3.72 8.93 13 13 0 0 1-9.27 3.49zm0-23.54a7.4 7.4 0 0 0-6.59 3.72 14.43 14.43 0 0 0-1.45 3.63 16.78 16.78 0 0 0-.48 4 17.47 17.47 0 0 0 .47 4.13 12.39 12.39 0 0 0 1.45 3.54 7 7 0 0 0 2.72 2.58 8.41 8.41 0 0 0 4.09 1 7.64 7.64 0 0 0 4-1 6.87 6.87 0 0 0 2.57-2.73 13.15 13.15 0 0 0 1.32-3.58 18.62 18.62 0 0 0 .42-4 19 19 0 0 0-.27-3.24 13.3 13.3 0 0 0-.92-3 9.32 9.32 0 0 0-1.61-2.58 7 7 0 0 0-2.45-1.81 7.92 7.92 0 0 0-3.27-.66zM63.38 144v-7h.82q1.32 6.66 6.76 6.66a5.65 5.65 0 0 0 3.65-1.18 4 4 0 0 0 1.47-3.3 4.54 4.54 0 0 0-.45-2 4.19 4.19 0 0 0-1.34-1.58 11.73 11.73 0 0 0-1.66-1c-.51-.27-1.18-.56-2-.9a24.72 24.72 0 0 1-2.47-1.09 14.4 14.4 0 0 1-2.07-1.34 5.37 5.37 0 0 1-1.63-2 6 6 0 0 1-.55-2.63 5.85 5.85 0 0 1 2-4.7 7.46 7.46 0 0 1 5.09-1.78 9.21 9.21 0 0 1 5.4 1.84l.83-1.39h.39l.18 6.19H77c-1-3.77-3-5.65-6-5.65a4.42 4.42 0 0 0-3 1 3.46 3.46 0 0 0-1.22 2.76 3.37 3.37 0 0 0 .33 1.5 4.36 4.36 0 0 0 .68 1.09 4.47 4.47 0 0 0 1.18.9 11.11 11.11 0 0 0 1.2.64l1.37.59c1.2.5 2.15.94 2.87 1.31a19.49 19.49 0 0 1 2.39 1.52 6.13 6.13 0 0 1 2 2.27 6.67 6.67 0 0 1 .65 3 5.94 5.94 0 0 1-2.56 5.12 10.12 10.12 0 0 1-6 1.82 10.31 10.31 0 0 1-6.26-2.14l-.86 1.5zM113.83 132.65l7.59 8.69a7.57 7.57 0 0 0 1.58 1.49 5.42 5.42 0 0 0 1.93.63v.82c-.36 0-.9 0-1.61-.07s-1.26-.08-1.61-.08-.77 0-1.36.08-1 .07-1.33.07l-1.68-2.08-5.94-7.37-.46-.57a5.8 5.8 0 0 0-.42-.47c-.06 0-.16-.13-.3-.25a.75.75 0 0 0-.43-.19l-.52-.06h-.8v4.22a20.15 20.15 0 0 0 .32 4.76 1.55 1.55 0 0 0 .45.71 1.49 1.49 0 0 0 .84.38 7.89 7.89 0 0 0 .82.11h.93v.82c-.53 0-1.35 0-2.47-.06l-2.58-.09c-.59 0-1.49 0-2.68.08s-2.09.07-2.68.07v-.82h1.25a2.79 2.79 0 0 0 1-.32 1.41 1.41 0 0 0 .75-.86 20.74 20.74 0 0 0 .32-4.76v-10.14a20.68 20.68 0 0 0-.32-4.76 1.77 1.77 0 0 0-.45-.72 1.56 1.56 0 0 0-.82-.37 7.56 7.56 0 0 0-.82-.11h-1v-.82c.66 0 1.69 0 3.07.07s2.41.07 3.08.07c.5 0 1.26 0 2.27-.07s1.77-.07 2.28-.07a18.28 18.28 0 0 1 3 .23 10 10 0 0 1 2.56.84 4.38 4.38 0 0 1 1.91 1.83 6.1 6.1 0 0 1 .68 3 5.43 5.43 0 0 1-1.82 4.33 8 8 0 0 1-4.53 1.81zm-5.36-9.7v9.34h2.56a13 13 0 0 0 2-.33 3.62 3.62 0 0 0 1.74-.8 4.28 4.28 0 0 0 1-1.57 6.82 6.82 0 0 0 .42-2.54 5.63 5.63 0 0 0-1.33-3.91 4.72 4.72 0 0 0-3.68-1.46h-2.33q-.38.16-.38 1.32zM134 137.48v-10.09a18.27 18.27 0 0 0-.36-4.76 1.6 1.6 0 0 0-1.09-1 7.34 7.34 0 0 0-2-.22v-.82c.57 0 1.43 0 2.58.07s2 .07 2.57.07l2.72-.09h2.69v.82h-1.26a2.75 2.75 0 0 0-1 .32 1.55 1.55 0 0 0-.79.86 18.27 18.27 0 0 0-.36 4.76v10.09a18.32 18.32 0 0 0 .36 4.76 1.6 1.6 0 0 0 1.09 1 7.71 7.71 0 0 0 2 .22v.82c-.55 0-1.4 0-2.56-.06s-2-.06-2.6-.09-1.49.05-2.7.08-2.1 0-2.7.07v-.82h1.25a2.79 2.79 0 0 0 1-.32 1.58 1.58 0 0 0 .79-.86 18.32 18.32 0 0 0 .37-4.81zM162.32 144.67a13.23 13.23 0 0 1-9.18-3.43 11.24 11.24 0 0 1-3.81-8.73 11.4 11.4 0 0 1 3.92-8.79 13.26 13.26 0 0 1 9.21-3.56 13 13 0 0 1 9.06 3.45 11.21 11.21 0 0 1 3.79 8.64 11.67 11.67 0 0 1-3.74 8.93 13 13 0 0 1-9.25 3.49zm0-23.54a7.49 7.49 0 0 0-3.92 1 7.4 7.4 0 0 0-2.66 2.7 13.72 13.72 0 0 0-1.45 3.63 16.78 16.78 0 0 0-.49 4 17.47 17.47 0 0 0 .47 4.13 12.39 12.39 0 0 0 1.45 3.54 7 7 0 0 0 2.72 2.58 8.45 8.45 0 0 0 4.1 1 7.61 7.61 0 0 0 4-1 6.87 6.87 0 0 0 2.56-2.71 13.51 13.51 0 0 0 1.33-3.58 19.27 19.27 0 0 0 .41-4 19 19 0 0 0-.27-3.24 13.27 13.27 0 0 0-.91-3 9.81 9.81 0 0 0-1.61-2.58 7.1 7.1 0 0 0-2.44-1.75 7.89 7.89 0 0 0-3.29-.72zM184 144v-7h.82q1.32 6.66 6.77 6.66a5.69 5.69 0 0 0 3.65-1.18 4 4 0 0 0 1.46-3.3 4.68 4.68 0 0 0-.44-2 4.31 4.31 0 0 0-1.35-1.58 11.73 11.73 0 0 0-1.66-1c-.51-.27-1.18-.56-2-.9a24.72 24.72 0 0 1-2.47-1.09 14.4 14.4 0 0 1-2.07-1.34 5.37 5.37 0 0 1-1.63-2 6 6 0 0 1-.55-2.63 5.85 5.85 0 0 1 2-4.7 7.48 7.48 0 0 1 5.06-1.74A9.21 9.21 0 0 1 197 122l.83-1.39h.39l.18 6.19h-.82q-1.57-5.66-6-5.65a4.42 4.42 0 0 0-3 1 3.46 3.46 0 0 0-1.22 2.76 3.37 3.37 0 0 0 .33 1.5 4.36 4.36 0 0 0 .68 1.09 4.47 4.47 0 0 0 1.18.9 13.42 13.42 0 0 0 1.2.64l1.37.59c1.2.5 2.15.94 2.87 1.31a19.49 19.49 0 0 1 2.39 1.52 6.13 6.13 0 0 1 2 2.27 6.67 6.67 0 0 1 .65 3 5.94 5.94 0 0 1-2.56 5.12 10.12 10.12 0 0 1-6 1.82 10.31 10.31 0 0 1-6.26-2.14l-.86 1.5zM242.48 122.38l.57-1.68h.54l.28 7h-.82a8.1 8.1 0 0 0-2.49-4.91 7.18 7.18 0 0 0-5.06-1.79 7.43 7.43 0 0 0-4 1.06 7 7 0 0 0-2.6 2.81 15.83 15.83 0 0 0-1.32 3.7 19 19 0 0 0-.43 4.13 17.51 17.51 0 0 0 .45 4 13.57 13.57 0 0 0 1.38 3.54 6.82 6.82 0 0 0 2.61 2.61 7.76 7.76 0 0 0 4 1 8 8 0 0 0 3.18-.59 5.74 5.74 0 0 0 2.26-1.75 12.41 12.41 0 0 0 1.47-2.46 18.16 18.16 0 0 0 1-3.07h.64v7.83h-.46l-.88-1.81a12.39 12.39 0 0 1-7.91 2.68 12.14 12.14 0 0 1-8.84-3.27 11.62 11.62 0 0 1-3.36-8.72 12.11 12.11 0 0 1 12.52-12.52 12.64 12.64 0 0 1 3.74.5 15.94 15.94 0 0 1 3.53 1.71zM265.38 144.67a13.23 13.23 0 0 1-9.18-3.43 11.24 11.24 0 0 1-3.81-8.73 11.4 11.4 0 0 1 3.92-8.79 13.26 13.26 0 0 1 9.21-3.56 13 13 0 0 1 9.06 3.45 11.25 11.25 0 0 1 3.79 8.64 11.67 11.67 0 0 1-3.74 8.93 13 13 0 0 1-9.25 3.49zm0-23.54a7.37 7.37 0 0 0-6.58 3.72 14.08 14.08 0 0 0-1.46 3.63 16.78 16.78 0 0 0-.48 4 17.47 17.47 0 0 0 .47 4.13 12.39 12.39 0 0 0 1.45 3.54 7 7 0 0 0 2.72 2.58 8.41 8.41 0 0 0 4.09 1 7.64 7.64 0 0 0 4-1 6.87 6.87 0 0 0 2.59-2.68 13.15 13.15 0 0 0 1.32-3.58 18.62 18.62 0 0 0 .42-4 19 19 0 0 0-.27-3.24 13.3 13.3 0 0 0-.92-3 9.32 9.32 0 0 0-1.61-2.58 7 7 0 0 0-2.43-1.75 7.92 7.92 0 0 0-3.31-.77zM312.36 126.64v13c0 1.72.16 2.76.49 3.11s1.34.61 3.06.76v.82l-2.76-.09q-1.78-.06-2.61-.06c-.6 0-1.5.05-2.7.08s-2.11 0-2.71.07v-.82c1.72-.15 2.74-.4 3.06-.76s.49-1.39.49-3.11V124h-.07l-4.08 10c-.51 1.15-1.25 2.87-2.24 5.16s-1.74 4-2.24 5.15h-.36L291 124h-.07v15.06a5.9 5.9 0 0 0 .7 3.28 3.34 3.34 0 0 0 2.73 1.13v.82c-.43 0-1.08 0-2-.07s-1.56-.08-2-.08-1 .05-1.86.08-1.47 0-1.9.07v-.82q3.22 0 3.22-3.26V125a6.51 6.51 0 0 0-.32-2.33 1.58 1.58 0 0 0-1.09-1 7.24 7.24 0 0 0-2-.22v-.82c.84 0 2 .1 3.62.14s2.53-.09 3.29-.14l7.87 18.32 7.66-18.32c.72 0 1.84.1 3.37.14s2.7-.09 3.54-.14v.86c-1.7 0-2.72.4-3.08 1.22a12.64 12.64 0 0 0-.32 3.93zM349.22 126.64v13c0 1.72.16 2.76.48 3.11s1.35.61 3.06.76v.82l-2.75-.09c-1.19 0-2.07-.06-2.61-.06s-1.5.05-2.71.08-2.1 0-2.7.07v-.82c1.72-.15 2.74-.4 3.06-.76s.48-1.39.48-3.11V124h-.07l-4.08 10-2.23 5.16c-1 2.29-1.74 4-2.24 5.15h-.36L327.86 124h-.07v15.06a6 6 0 0 0 .69 3.28 3.38 3.38 0 0 0 2.74 1.13v.82c-.43 0-1.08 0-2-.07s-1.55-.08-2-.08-1 .05-1.86.08-1.47 0-1.9.07v-.82q3.22 0 3.22-3.26V125a6.51 6.51 0 0 0-.32-2.33 1.58 1.58 0 0 0-1.09-1 7.29 7.29 0 0 0-2-.22v-.82c.84 0 2 .1 3.62.14s2.53-.09 3.29-.14l7.87 18.32 7.66-18.32c.72 0 1.84.1 3.36.14s2.71-.09 3.55-.14v.86c-1.7 0-2.72.4-3.08 1.22a12.64 12.64 0 0 0-.32 3.93zM382.43 128.18v6.62q0 5-2.18 7.44c-1.46 1.62-3.84 2.43-7.16 2.43s-5.7-.66-7.23-2-2.29-3.58-2.29-6.75v-8.55a18.27 18.27 0 0 0-.36-4.76 1.58 1.58 0 0 0-1.09-1 7.21 7.21 0 0 0-2-.22v-.82c.54 0 1.38 0 2.52.07s2 .07 2.56.07 1.49 0 2.7-.07 2.12-.07 2.74-.07v.82h-1a7.37 7.37 0 0 0-.83.11 1.71 1.71 0 0 0-.84.37 1.6 1.6 0 0 0-.46.72 20.09 20.09 0 0 0-.32 4.76v8.8a8 8 0 0 0 1.57 5.39q1.57 1.8 5.12 1.8 7.41 0 7.41-7.37v-7.83a21.63 21.63 0 0 0-.36-5.12 2 2 0 0 0-1.17-1.33 6.23 6.23 0 0 0-2.16-.32v-.82c.48 0 1.17 0 2.07.07s1.6.07 2.08.07h2l2-.09v.82a4.52 4.52 0 0 0-2.33.5 1.65 1.65 0 0 0-.57.79 18.76 18.76 0 0 0-.42 5.47zM397.1 136.76v-13.2a5.39 5.39 0 0 0-1.66-1.66 5 5 0 0 0-2.24-.49v-.82c.38 0 .95 0 1.7.07s1.32.07 1.7.07.78 0 1.41-.07 1.11-.07 1.42-.07l15.1 18.41h.07v-10a31.12 31.12 0 0 0-.32-5.51 7.41 7.41 0 0 0-.22-.73 1.4 1.4 0 0 0-.3-.52 3.58 3.58 0 0 0-.34-.34 1.18 1.18 0 0 0-.49-.22l-.5-.12c-.1 0-.32-.06-.64-.11l-.7-.11v-.82c.43 0 1.09 0 2 .07s1.54.07 2 .07h1.86l1.93-.09v.82h-.52a3.36 3.36 0 0 0-.52.07l-.41.09a1 1 0 0 0-.43.16l-.32.27a1.14 1.14 0 0 0-.3.39 3.85 3.85 0 0 0-.22.56 27.47 27.47 0 0 0-.43 6.26v15.42h-1.13c-.53-.64-1.31-1.63-2.36-3l-14-17h-.08v12a15.73 15.73 0 0 0 .54 5.23 4.43 4.43 0 0 0 .29.5 1.3 1.3 0 0 0 .37.37c.16.11.29.2.4.26a1.55 1.55 0 0 0 .48.14 3.07 3.07 0 0 1 .46.09 4.49 4.49 0 0 0 .56.07h.55v.82c-.45 0-1.14 0-2.05-.07s-1.61-.08-2.06-.08-1.09 0-2 .08-1.55.07-2 .07v-.82c.5-.05.85-.09 1.05-.13l.84-.21a1.43 1.43 0 0 0 .79-.52 2.66 2.66 0 0 0 .39-.9 27.35 27.35 0 0 0 .33-4.75zM429.59 137.48v-10.09a18.27 18.27 0 0 0-.36-4.76 1.58 1.58 0 0 0-1.09-1 7.21 7.21 0 0 0-2-.22v-.82c.57 0 1.43 0 2.57.07s2 .07 2.58.07l2.72-.09h2.68v.82h-1.25a2.79 2.79 0 0 0-1 .32 1.53 1.53 0 0 0-.78.86 18.27 18.27 0 0 0-.36 4.76v10.09a18.32 18.32 0 0 0 .36 4.76 1.58 1.58 0 0 0 1.09 1 7.63 7.63 0 0 0 2 .22v.82c-.55 0-1.4 0-2.56-.06s-2-.06-2.59-.09-1.5.05-2.7.08-2.11 0-2.7.07v-.82h1.25a2.85 2.85 0 0 0 1-.32 1.53 1.53 0 0 0 .78-.86 18.32 18.32 0 0 0 .36-4.81zM466 120.59l.32 5.58h-1c-.09-1.72-.51-2.88-1.25-3.5a5.69 5.69 0 0 0-3.68-.94h-1.92a2.21 2.21 0 0 0-.62.09l-.47.18a.74.74 0 0 0-.36.27.73.73 0 0 0-.11.41v17a4.29 4.29 0 0 0 .74 2.9c.49.53 1.57.82 3.24.9v.82c-.65 0-1.63 0-3-.07s-2.32-.08-3-.08-1.57 0-2.83.06l-2.86.09v-.82c1.67-.08 2.75-.37 3.24-.9a4.35 4.35 0 0 0 .73-2.9v-17a.81.81 0 0 0-.2-.57 1.07 1.07 0 0 0-.66-.29 7.08 7.08 0 0 0-.79-.09H450.16a19.25 19.25 0 0 0-2.36.11 4.83 4.83 0 0 0-1.57.52 2.27 2.27 0 0 0-1.11 1.33 7.9 7.9 0 0 0-.36 2.48H444v-5.58zM483.23 134.83v4.76c0 1.72.16 2.76.48 3.11s1.35.61 3.06.76v.82c-.59 0-1.49 0-2.68-.07s-2.09-.08-2.68-.08-1.51 0-2.72.08-2.14.07-2.76.07v-.82c1.72-.15 2.75-.4 3.1-.77s.52-1.41.52-3.1v-4.44l-3.3-5.69-.64-1.21c-.43-.84-.84-1.61-1.24-2.31s-.83-1.46-1.32-2.25a9.83 9.83 0 0 0-1.16-1.63 1.48 1.48 0 0 0-.56-.43 3 3 0 0 0-.8-.15 4.94 4.94 0 0 1-.72-.07v-.82c.55 0 1.37 0 2.45.07s1.89.07 2.42.07 1.38 0 2.5-.07 2-.07 2.54-.07v.82c-1.78 0-2.68.38-2.68 1.15a6.25 6.25 0 0 0 .93 2.5l4.65 8.63 2.29-3.65c2.36-3.94 3.55-6.31 3.55-7.12a1.25 1.25 0 0 0-.06-.4.68.68 0 0 0-.18-.32l-.22-.2a.68.68 0 0 0-.31-.18l-.34-.12a1.24 1.24 0 0 0-.39-.09l-.37-.06h-.72v-.82c.43 0 1.07 0 1.91.07s1.49.07 1.92.07 1 0 1.75-.07 1.37-.07 1.76-.07v.82a3.31 3.31 0 0 0-1.72.61 4.66 4.66 0 0 0-1.08 1c-.21.31-.55.84-1 1.58zM532.33 122.38l.57-1.68h.54l.28 7h-.82a8.1 8.1 0 0 0-2.49-4.91 7.17 7.17 0 0 0-5.06-1.86 7.43 7.43 0 0 0-4 1.06 6.94 6.94 0 0 0-2.59 2.81 15.41 15.41 0 0 0-1.33 3.7 19 19 0 0 0-.43 4.13 17.51 17.51 0 0 0 .45 4 13.57 13.57 0 0 0 1.38 3.54 6.82 6.82 0 0 0 2.61 2.61 7.76 7.76 0 0 0 4 1 8 8 0 0 0 3.19-.59 5.7 5.7 0 0 0 2.25-1.75 12 12 0 0 0 1.47-2.46 18.16 18.16 0 0 0 1-3.07h.65v7.83h-.46l-.86-1.82a12.39 12.39 0 0 1-7.91 2.68 12.14 12.14 0 0 1-8.84-3.27 11.62 11.62 0 0 1-3.36-8.72 12.11 12.11 0 0 1 12.52-12.52 12.59 12.59 0 0 1 3.74.5 15.94 15.94 0 0 1 3.5 1.79zM555.23 144.67a13.23 13.23 0 0 1-9.18-3.43 11.24 11.24 0 0 1-3.81-8.73 11.4 11.4 0 0 1 3.92-8.79 13.26 13.26 0 0 1 9.21-3.56 13 13 0 0 1 9.06 3.45 11.21 11.21 0 0 1 3.79 8.64 11.67 11.67 0 0 1-3.74 8.93 13 13 0 0 1-9.25 3.49zm0-23.54a7.49 7.49 0 0 0-3.92 1 7.4 7.4 0 0 0-2.66 2.7 13.72 13.72 0 0 0-1.45 3.63 16.78 16.78 0 0 0-.49 4 17.47 17.47 0 0 0 .47 4.13 12.39 12.39 0 0 0 1.45 3.54 7 7 0 0 0 2.72 2.58 8.42 8.42 0 0 0 4.1 1 7.61 7.61 0 0 0 4-1A6.87 6.87 0 0 0 562 140a13.51 13.51 0 0 0 1.33-3.58 19.27 19.27 0 0 0 .41-4 19 19 0 0 0-.27-3.24 13.27 13.27 0 0 0-.91-3 9.81 9.81 0 0 0-1.61-2.58 7.1 7.1 0 0 0-2.44-1.75 7.89 7.89 0 0 0-3.28-.72zM579.64 137.48v-10.09a18.75 18.75 0 0 0-.36-4.76 1.59 1.59 0 0 0-1.1-1 7.21 7.21 0 0 0-2-.22v-.82c.57 0 1.43 0 2.56.07s2 .07 2.56.07 1.5 0 2.72-.07 2.12-.07 2.72-.07v.82h-1.26a2.75 2.75 0 0 0-1 .32 1.51 1.51 0 0 0-.79.86 18.27 18.27 0 0 0-.36 4.76V138q0 3.44.93 4.38c.62.64 2.06.95 4.33.95h.32c2.27 0 3.86-.3 4.76-.89a4.2 4.2 0 0 0 1.34-1.27 4.08 4.08 0 0 0 .63-1.34q.15-.62.36-1.86h.89l-.32 6.33q-1.29-.08-1.86-.15-3.08 0-18.5.15v-.82h1.25a2.79 2.79 0 0 0 1-.32 1.58 1.58 0 0 0 .79-.86 18.81 18.81 0 0 0 .39-4.82zM607.19 137.48v-10.09a18.27 18.27 0 0 0-.36-4.76 1.58 1.58 0 0 0-1.09-1 7.29 7.29 0 0 0-2-.22v-.82c.58 0 1.43 0 2.56.07s2 .07 2.56.07 1.5 0 2.72-.07 2.12-.07 2.72-.07v.82h-1.25a2.79 2.79 0 0 0-1 .32 1.58 1.58 0 0 0-.79.86 18.27 18.27 0 0 0-.36 4.76V138q0 3.44.93 4.38c.63.64 2.07.95 4.34.95h.32a9.27 9.27 0 0 0 4.76-.89 4.31 4.31 0 0 0 1.34-1.27 4.25 4.25 0 0 0 .62-1.34q.15-.62.36-1.86h.9l-.33 6.33c-.85-.05-1.47-.1-1.85-.15q-3.09 0-18.51.15v-.82h1.26a2.85 2.85 0 0 0 1-.32 1.53 1.53 0 0 0 .78-.86 18.32 18.32 0 0 0 .37-4.82zM634.74 137.41v-9.88a18.32 18.32 0 0 0-.36-4.76 1.58 1.58 0 0 0-1.09-1 7.68 7.68 0 0 0-2-.21v-1h17.78V126h-.82a9.05 9.05 0 0 0-.7-2.45 2.86 2.86 0 0 0-1.34-1.34 5.61 5.61 0 0 0-1.77-.54 23.2 23.2 0 0 0-2.53-.1h-2.57c-.55 0-.85 0-.9.14a12.4 12.4 0 0 0 0 1.32v8.48c2.24.1 3.74-.23 4.51-1a5.22 5.22 0 0 0 1.32-3.42h.82c0 2.2-.09 3.82-.14 4.87s.1 2.43.14 4.44h-.82c-.24-1.75-.77-2.84-1.61-3.28a9.73 9.73 0 0 0-4.22-.66v5.87c0 1.84.21 3 .64 3.61q1 1.37 4.58 1.29a17.91 17.91 0 0 0 2.58-.2 6.66 6.66 0 0 0 1.91-.62 3.09 3.09 0 0 0 1.45-1.45 7.42 7.42 0 0 0 .68-2.52h.82l-.32 5.76h-19.47v-.83h1.25a3 3 0 0 0 1-.32 1.53 1.53 0 0 0 .78-.86 18.32 18.32 0 0 0 .4-4.78zM680.73 120.8l-.4 7.09h-.75a7.4 7.4 0 0 0-2.08-5 6.62 6.62 0 0 0-4.93-1.92 8.16 8.16 0 0 0-3.55.74 6.82 6.82 0 0 0-2.45 1.88 9.47 9.47 0 0 0-1.5 2.79 15.06 15.06 0 0 0-.79 3.23 28.76 28.76 0 0 0-.19 3.46 16.85 16.85 0 0 0 .43 3.93 11.7 11.7 0 0 0 1.34 3.37 6.52 6.52 0 0 0 2.56 2.43 7.83 7.83 0 0 0 3.83.9 6.56 6.56 0 0 0 4.38-1.35 5 5 0 0 0 1.59-4 3.06 3.06 0 0 0-.66-2.31 4.23 4.23 0 0 0-2.42-.73v-.83h9.38v.83a2 2 0 0 0-1.79.61 3.87 3.87 0 0 0-.43 2.11v3.79h-1.56a4.19 4.19 0 0 0-.61.11l-.48.13a3.73 3.73 0 0 0-.54.21l-.5.23-.62.36c-.35.2-.59.34-.74.41a12.22 12.22 0 0 1-5.61 1.36 12 12 0 0 1-8.66-3.2 11.13 11.13 0 0 1-3.37-8.46 12.8 12.8 0 0 1 3.49-9.2 13.19 13.19 0 0 1 16.48-1.4l.75-1.61zM694.14 137.41v-9.88a19 19 0 0 0-.35-4.76 1.62 1.62 0 0 0-1.1-1 7.68 7.68 0 0 0-2-.21v-1h17.78V126h-.82a9.05 9.05 0 0 0-.7-2.45 2.81 2.81 0 0 0-1.34-1.34 5.61 5.61 0 0 0-1.77-.54 23.12 23.12 0 0 0-2.52-.1h-2.58c-.55 0-.85 0-.89.14a8.74 8.74 0 0 0 0 1.32v8.48c2.24.1 3.74-.23 4.51-1a5.22 5.22 0 0 0 1.32-3.42h.83c0 2.2-.1 3.82-.15 4.87s.1 2.43.15 4.44h-.83c-.24-1.75-.77-2.84-1.61-3.28a9.7 9.7 0 0 0-4.22-.66v5.87c0 1.84.21 3 .64 3.61q1 1.37 4.58 1.29a17.78 17.78 0 0 0 2.58-.2 6.82 6.82 0 0 0 1.92-.62A3.12 3.12 0 0 0 709 141a7.42 7.42 0 0 0 .68-2.52h.83l-.33 5.76h-19.47v-.83h1.25a3 3 0 0 0 1-.32 1.58 1.58 0 0 0 .79-.86 19 19 0 0 0 .39-4.82zM736.37 137.48v-10a20.68 20.68 0 0 0-.32-4.76 1.84 1.84 0 0 0-.45-.72 1.56 1.56 0 0 0-.82-.37 7.37 7.37 0 0 0-.83-.11h-.94v-.89h2.23l2.27.09c.65 0 1.61 0 2.9-.07s2.26-.07 2.9-.07a13.31 13.31 0 0 1 9.52 3.26 11.59 11.59 0 0 1 3.76 9.08c0 3.73-1.12 6.57-3.35 8.54s-5.23 2.9-9 2.81c-.69 0-1.75-.05-3.17-.07s-2.48-.05-3.2-.08c-.55 0-1.36.06-2.45.09s-1.89.06-2.41.06v-.82h1.25a2.75 2.75 0 0 0 1-.32 1.4 1.4 0 0 0 .76-.86 20.74 20.74 0 0 0 .35-4.79zm3.68-14.56V139.66c0 .15 0 .42.07.77a3.4 3.4 0 0 0 .18.9 2.07 2.07 0 0 0 .34.64c.62.91 2 1.36 4 1.36a8.62 8.62 0 0 0 3.79-.75 5.08 5.08 0 0 0 2.31-2.2 10.82 10.82 0 0 0 1.07-3.06 20.94 20.94 0 0 0 .3-3.79c0-3.87-.71-6.82-2.14-8.88s-4-3.07-7.55-3.07a4.62 4.62 0 0 0-2.15.25 1.78 1.78 0 0 0-.22 1.09zM768.47 137.48v-10.09a18.27 18.27 0 0 0-.36-4.76 1.6 1.6 0 0 0-1.09-1 7.29 7.29 0 0 0-2-.22v-.82c.58 0 1.43 0 2.58.07s2 .07 2.58.07l2.71-.09h2.69v.82h-1.25a2.79 2.79 0 0 0-1 .32 1.55 1.55 0 0 0-.79.86 18.27 18.27 0 0 0-.36 4.76v10.09a18.32 18.32 0 0 0 .36 4.76 1.62 1.62 0 0 0 1.09 1 7.71 7.71 0 0 0 2 .22v.82c-.55 0-1.4 0-2.56-.06s-2-.06-2.59-.09-1.5.05-2.71.08-2.1 0-2.7.07v-.82h1.25a2.79 2.79 0 0 0 1-.32 1.55 1.55 0 0 0 .79-.86 18.32 18.32 0 0 0 .36-4.81zM783.71 144v-7h.82q1.34 6.66 6.77 6.66a5.69 5.69 0 0 0 3.65-1.18 4 4 0 0 0 1.47-3.3 4.54 4.54 0 0 0-.45-2 4.38 4.38 0 0 0-1.34-1.58 12.38 12.38 0 0 0-1.67-1c-.51-.27-1.17-.56-2-.9a23.73 23.73 0 0 1-2.47-1.09 14.46 14.46 0 0 1-2.08-1.34 5.47 5.47 0 0 1-1.63-2 6 6 0 0 1-.55-2.63 5.85 5.85 0 0 1 2-4.7 7.5 7.5 0 0 1 5.06-1.74 9.26 9.26 0 0 1 5.41 1.82l.82-1.39h.48l.18 6.19h-.82q-1.57-5.66-6-5.65a4.44 4.44 0 0 0-3 1 3.45 3.45 0 0 0-1.21 2.76 3.36 3.36 0 0 0 .32 1.5 4.36 4.36 0 0 0 .68 1.09 4.64 4.64 0 0 0 1.18.9 13.42 13.42 0 0 0 1.2.64l1.38.59c1.19.5 2.14.94 2.86 1.31a19.53 19.53 0 0 1 2.4 1.52 6.22 6.22 0 0 1 2 2.27 6.81 6.81 0 0 1 .64 3 5.92 5.92 0 0 1-2.56 5.12 10.09 10.09 0 0 1-6 1.82 10.29 10.29 0 0 1-6.26-2.14l-.86 1.5zM828.8 120.59l.32 5.58h-1c-.1-1.72-.52-2.88-1.26-3.5a5.69 5.69 0 0 0-3.68-.94h-1.92a2.21 2.21 0 0 0-.62.09l-.47.18a.8.8 0 0 0-.36.27.73.73 0 0 0-.1.41v17a4.29 4.29 0 0 0 .73 2.9c.49.53 1.57.82 3.24.9v.82c-.65 0-1.63 0-3-.07s-2.32-.08-3-.08-1.56 0-2.83.06l-2.86.09v-.82c1.67-.08 2.75-.37 3.24-.9a4.29 4.29 0 0 0 .73-2.9v-17a.81.81 0 0 0-.2-.57 1.07 1.07 0 0 0-.66-.29 7.08 7.08 0 0 0-.79-.09H812.95a19.25 19.25 0 0 0-2.36.11 4.83 4.83 0 0 0-1.57.52 2.27 2.27 0 0 0-1.11 1.33 8.2 8.2 0 0 0-.36 2.48h-.82v-5.58zM848.48 132.65l7.59 8.69a7.83 7.83 0 0 0 1.57 1.49 5.57 5.57 0 0 0 1.93.63v.82c-.35 0-.89 0-1.61-.07s-1.25-.08-1.61-.08-.76 0-1.36.08-1 .07-1.32.07L852 142.2l-5.94-7.37-.47-.57a4.7 4.7 0 0 0-.41-.47l-.3-.25a.78.78 0 0 0-.43-.19l-.52-.06h-.81v4.22a19.93 19.93 0 0 0 .33 4.76 1.62 1.62 0 0 0 .44.71 1.53 1.53 0 0 0 .84.38c.36.06.64.1.83.11h.93v.82c-.53 0-1.35 0-2.47-.06l-2.58-.09c-.6 0-1.49 0-2.68.08s-2.09.07-2.69.07v-.82h1.26a2.75 2.75 0 0 0 1-.32 1.35 1.35 0 0 0 .75-.86 19.93 19.93 0 0 0 .33-4.76v-10.14a19.88 19.88 0 0 0-.33-4.76 1.65 1.65 0 0 0-.44-.72 1.56 1.56 0 0 0-.82-.37 7.37 7.37 0 0 0-.83-.11h-1v-.82c.67 0 1.7 0 3.08.07s2.41.07 3.08.07c.5 0 1.26 0 2.27-.07s1.77-.07 2.27-.07a18.19 18.19 0 0 1 3 .23 9.73 9.73 0 0 1 2.56.84 4.35 4.35 0 0 1 1.92 1.83 6.1 6.1 0 0 1 .68 3 5.41 5.41 0 0 1-1.83 4.33 8 8 0 0 1-4.54 1.81zm-5.37-9.7v9.34h2.56a13 13 0 0 0 2-.33 3.62 3.62 0 0 0 1.74-.8 4.28 4.28 0 0 0 1-1.57 7 7 0 0 0 .41-2.54 5.63 5.63 0 0 0-1.32-3.91 4.73 4.73 0 0 0-3.69-1.46h-2.32c-.25.1-.38.53-.38 1.32zM868.66 137.48v-10.09a18.27 18.27 0 0 0-.36-4.76 1.56 1.56 0 0 0-1.09-1 7.21 7.21 0 0 0-2-.22v-.82c.57 0 1.43 0 2.57.07s2 .07 2.58.07l2.72-.09h2.68v.82h-1.25a2.79 2.79 0 0 0-1 .32 1.53 1.53 0 0 0-.78.86 18.27 18.27 0 0 0-.36 4.76v10.09a18.32 18.32 0 0 0 .36 4.76 1.58 1.58 0 0 0 1.09 1 7.63 7.63 0 0 0 2 .22v.82c-.55 0-1.4 0-2.56-.06s-2-.06-2.59-.09-1.5.05-2.7.08-2.11 0-2.7.07v-.82h1.25a2.85 2.85 0 0 0 1-.32 1.53 1.53 0 0 0 .78-.86 18.32 18.32 0 0 0 .36-4.81zM903.77 122.38l.57-1.68h.53l.29 7h-.82a8.1 8.1 0 0 0-2.49-4.91 7.18 7.18 0 0 0-5.06-1.86 7.43 7.43 0 0 0-4 1.06 7 7 0 0 0-2.6 2.81 15.83 15.83 0 0 0-1.32 3.7 19 19 0 0 0-.43 4.13 17.51 17.51 0 0 0 .45 4 13.23 13.23 0 0 0 1.38 3.54 6.82 6.82 0 0 0 2.61 2.61 7.76 7.76 0 0 0 4 1 8 8 0 0 0 3.18-.59 5.74 5.74 0 0 0 2.26-1.75 12 12 0 0 0 1.47-2.46 18.16 18.16 0 0 0 1-3.07h.64v7.83H905l-.86-1.82a12.39 12.39 0 0 1-7.91 2.68 12.14 12.14 0 0 1-8.84-3.27 11.62 11.62 0 0 1-3.36-8.72 12.11 12.11 0 0 1 12.52-12.52 12.64 12.64 0 0 1 3.74.5 15.94 15.94 0 0 1 3.48 1.79zM934.72 120.59l.32 5.58h-1c-.1-1.72-.52-2.88-1.26-3.5a5.69 5.69 0 0 0-3.68-.94h-1.92a2.21 2.21 0 0 0-.62.09l-.47.18a.8.8 0 0 0-.36.27.73.73 0 0 0-.1.41v17a4.29 4.29 0 0 0 .73 2.9c.49.53 1.57.82 3.24.9v.82c-.65 0-1.63 0-2.95-.07s-2.32-.08-3-.08-1.56 0-2.83.06l-2.86.09v-.82c1.67-.08 2.75-.37 3.24-.9a4.29 4.29 0 0 0 .73-2.9v-17a.76.76 0 0 0-.2-.57 1.07 1.07 0 0 0-.66-.29 7.08 7.08 0 0 0-.79-.09H919a19.33 19.33 0 0 0-2.37.11 4.83 4.83 0 0 0-1.57.52 2.27 2.27 0 0 0-1.11 1.33 8.2 8.2 0 0 0-.36 2.48h-.82v-5.58z"/><path class="b" d="M309.3 60.86c-2 0-2.29.08-2.8 1.69l-3.31 9.84a9.86 9.86 0 0 0-.59 3c0 .51 1.1 1 3.47 1.44l2.55.43c.51.59.68 2.54-.17 3-3-.17-6-.17-9.58-.26-2.89 0-4.84.26-8.74.26-.93-.51-.85-2.29-.25-3l2.29-.26c2-.25 3.73-.93 5.17-4.24s3.05-7.46 5.34-13.56l7.72-20.7c2-5.34 3.39-8.3 3.14-10.77 4.07-.93 7.2-5.08 7.38-5.08 1.1 0 1.61.42 1.94 1.69.68 2.46 1.7 5.6 3.82 11.62l11.54 33.24c1.77 5.09 2.54 7 5.68 7.55l3.22.51c.51.42.68 2.46-.09 3C343 80.11 338.38 80 334 80c-4.24 0-7.54.09-11.44.26a1.92 1.92 0 0 1-.17-3l2.71-.43c1.95-.33 2.29-.93 2.29-1.44a36.54 36.54 0 0 0-1.61-5.76l-2.29-7.3c-.42-1.35-1.1-1.52-4.07-1.52zm9.67-4.5c1.95 0 2.37-.25 1.69-2.46l-2.2-6.9c-1.19-3.64-2.72-8.22-3.48-10-.68 1.95-2.38 6.53-3.65 10.43l-2.12 6.36c-.76 2.29-.34 2.54 1.78 2.54zM352.84 33.76c-.59-.59-.59-2.36.22-2.58 2.5.15 5.67.22 9.28.22 2.43 0 4.57 0 7.22-.22 0 4.57 2.58 9.06 5.82 16l4.86 10.38c.66 1.48 3.32 6.12 4.35 8 1-1.77 2.13-4.05 4.12-8.4l3.76-8.1c3.53-7.59 5.38-11.49 7-17.83a66.08 66.08 0 0 0 7.29.22c2.43 0 5.82-.07 8.47-.22a1.84 1.84 0 0 1 .22 2.58l-2.13.37c-3 .52-4.5 1.4-4.5 5.3 0 15.18.15 23.13.59 32.42.15 3.38.44 5.15 3.32 5.52l2.35.3c.59.58.59 2.28-.14 2.57-3.39-.14-6.56-.22-10.17-.22-3.31 0-7.37.08-10.9.22a1.66 1.66 0 0 1-.22-2.57l2.21-.3c3.38-.44 3.38-1.33 3.38-5.82l-.14-19.2V44h-.1c-5.45 11.79-11.34 24.09-16.21 36.54a2.37 2.37 0 0 1-1.47.51 3.8 3.8 0 0 1-1.91-.44c-2.88-9.13-11.94-27.4-16.06-37h-.15c-.3 4.79-.37 8-.44 11.86-.07 4.79-.15 12.16-.15 16.58 0 3.68.44 4.71 3.39 5.15l2.87.45a2.08 2.08 0 0 1-.15 2.57C366 80.1 362.78 80 360 80c-2.35 0-5.15.08-8.1.22-1-.29-1-2.21-.3-2.57l1.33-.23c3.76-.66 4.2-1.1 4.64-5.67.37-3.61.59-10 1-17 .3-4.93.45-10.9.45-14.87 0-4.2-1.63-5.31-4.57-5.82zM437.07 50.56c0 2.06.08 2.21 2.07 2.21h5.08c3.83 0 4.71-.52 5.45-4.05l.37-1.85c.51-.58 2.36-.58 2.73.08-.15 2.35-.23 5-.23 7.8s.08 5.46.23 7.81c-.37.67-2.22.74-2.73.08l-.37-1.84c-.74-3.54-1.62-4.13-5.45-4.13h-5.08c-2 0-2.07.08-2.07 2.28v8.77c0 3.39.3 5.75 1.18 7s2.36 1.91 7.74 1.91c6.41 0 8.91-.22 13-8.54a1.79 1.79 0 0 1 2.73.37 42 42 0 0 1-3.09 11.78c-3.91-.14-11-.22-17-.22H432c-3.53 0-7.14.08-12.67.22a2.09 2.09 0 0 1 0-2.57l3.46-.52c3.32-.52 3.76-1 3.76-7.74V41.94c0-6.71-.44-7.15-3.76-7.81l-1.84-.37a1.85 1.85 0 0 1 .15-2.58c3.46.15 7.07.22 10.61.22h15.61c4.72 0 8.92-.07 9.88-.22.07 1.18.58 6.49.95 11.42-.29.81-2 1-2.72.29a17 17 0 0 0-2.8-5.81c-1.4-1.4-3.61-2.29-7.22-2.29h-5.89c-2.44 0-2.44.15-2.44 2.88zM469.83 43.34c0-7.37-.14-8.18-3.24-8.62l-2-.29a1.69 1.69 0 0 1 .15-2.58c5.53-.37 11.27-.67 18.27-.67 6.26 0 11.64 1 14.44 2.65 4.27 2.51 6.48 6.19 6.48 10.91 0 6.55-4.42 9.35-7.81 11-.74.36-.74.81-.37 1.62 4.87 9.87 7.89 15.39 11.42 18.41a9.07 9.07 0 0 0 4.94 2.07 1.4 1.4 0 0 1 .29 1.91 17.59 17.59 0 0 1-5.82.67c-6.78 0-11-2.44-14.29-7.74a91 91 0 0 1-5.74-11.42 3.75 3.75 0 0 0-3.91-2.58c-2.58 0-2.72.15-2.72 1.62v9.06c0 6.78.44 7.3 3.75 7.89l2 .37a2.31 2.31 0 0 1 0 2.57c-3.9-.14-7.29-.22-10.83-.22s-6.92.08-10.75.22a2.09 2.09 0 0 1 0-2.57l2-.37c3.31-.59 3.75-1.11 3.75-7.89zm10.1 9.35c0 2.58.22 2.8 4.56 2.8a7.08 7.08 0 0 0 5.6-2.06c1.25-1.25 2.65-3.61 2.65-8 0-6.63-3.9-10.9-9.65-10.9-3 0-3.16.22-3.16 3.76zM531.1 69.27c0 6.92.44 7.44 3.83 8l2.06.37a2.09 2.09 0 0 1-.07 2.57c-4-.14-7.59-.22-11-.22s-7.22.08-11.2.22a2.09 2.09 0 0 1 0-2.57l2.06-.37c3.39-.59 3.83-1.11 3.83-8V42.16c0-6.93-.44-7.44-3.83-8l-2.06-.37a2.1 2.1 0 0 1 0-2.58c4 .15 7.66.22 11.2.22s7.14-.07 11.12-.22a2.1 2.1 0 0 1 0 2.58l-2.06.37c-3.39.59-3.83 1.1-3.83 8zM585.15 32.14a98.94 98.94 0 0 0 .85 11.49c-.3.89-2.29 1.18-2.8.52-2-6.85-6.71-10.54-13.85-10.54-8.18 0-16.95 7-16.95 21.66s8.48 22.54 17.32 22.54 13-6.41 15-11.41a2.11 2.11 0 0 1 2.8.51c-.51 5.45-1.76 9.87-2.8 11.56-4 1.11-9.2 2.73-14.95 2.73-7.22 0-14.58-1.69-19.81-5.6a23.1 23.1 0 0 1-9.36-19.3 24.34 24.34 0 0 1 8.91-19.52c5.23-4.35 12.75-6.56 20.41-6.56s13.02 1.78 15.23 1.92zM605.38 63.37c-1.76 0-2 .08-2.43 1.48l-2.87 8.54a8.78 8.78 0 0 0-.52 2.65c0 .45 1 .89 3 1.26l2.21.37c.44.51.58 2.2-.15 2.57-2.58-.14-5.23-.14-8.33-.22-2.5 0-4.2.22-7.58.22-.81-.44-.74-2-.22-2.57l2-.23c1.77-.22 3.25-.81 4.5-3.68s2.65-6.48 4.64-11.79l6.7-18c1.7-4.64 2.95-7.22 2.73-9.35 3.53-.82 6.26-4.43 6.41-4.43.95 0 1.39.37 1.69 1.48.59 2.13 1.47 4.86 3.31 10.09l10 28.88c1.55 4.42 2.21 6.11 4.94 6.55l2.8.45c.44.36.59 2.13-.08 2.57-3.53-.14-7.51-.22-11.34-.22s-6.55.08-10 .22a1.67 1.67 0 0 1-.14-2.57l2.36-.37c1.69-.3 2-.81 2-1.26a31 31 0 0 0-1.41-5l-2-6.34c-.37-1.18-1-1.33-3.54-1.33zm8.4-3.9c1.7 0 2.06-.22 1.48-2.14l-1.92-6c-1-3.17-2.36-7.15-3-8.69-.59 1.69-2.06 5.67-3.17 9.06l-1.84 5.52c-.66 2-.29 2.21 1.55 2.21zM688.23 67.5c0 4.79 0 9.43.15 11.86-.52.88-2.58 1.69-4.35 1.69-.07 0-2.5-3.75-6-8L661.05 52c-4.27-5.23-6.7-8.33-8-9.43-.37.73-.37 2-.37 4.71v14.25c0 6 .3 11.49 1.11 13.48.66 1.55 2.35 2.07 4.27 2.36l2.06.3a2.33 2.33 0 0 1 0 2.57c-4-.14-6.92-.22-9.87-.22-2.72 0-5.45.08-8.25.22a2.33 2.33 0 0 1 0-2.57l1.25-.23c2-.36 3.46-.88 4-2.43.81-2 1-7.51 1-13.48V42.82c0-4-.08-5.23-.52-6.26-.59-1.25-1.62-2.13-4.2-2.5l-2.06-.3c-.52-.59-.44-2.36.29-2.58 3.47.15 7.15.22 10.17.22 2.5 0 4.64-.07 6.19-.22.73 3.32 5.52 8.92 12.15 16.8l6.19 7.29c3.24 3.83 5.38 6.41 7.07 8.1a10.33 10.33 0 0 0 .3-3.31V49.89c0-6-.3-11.49-1.11-13.48-.66-1.54-2.28-2.06-4.27-2.35l-2-.3a2.34 2.34 0 0 1 0-2.58c4 .15 6.85.22 9.87.22 2.72 0 5.38-.07 8.25-.22a2.34 2.34 0 0 1 0 2.58l-1.33.22c-1.91.3-3.31.89-4 2.43-.81 2-1.11 7.52-1.11 13.48zM726.3 37.79c0-8.48-.17-9.41-3.74-9.92l-2.29-.34c-.84-.42-.84-2.54.17-3 6.37-.42 13-.76 21-.76 7.2 0 13.39 1.1 16.62 3.05 4.91 2.89 7.46 7.12 7.46 12.55 0 7.55-5.09 10.77-9 12.72-.85.43-.85.94-.42 1.87 5.59 11.36 9.07 17.72 13.14 21.2a10.32 10.32 0 0 0 5.76 2.4 1.63 1.63 0 0 1 .34 2.21c-1.36.59-4.07.76-6.7.76-7.8 0-12.72-2.8-16.45-8.9a106.43 106.43 0 0 1-6.61-13.15 4.31 4.31 0 0 0-4.5-3c-3 0-3.14.16-3.14 1.86v10.47c0 7.8.51 8.4 4.33 9.07l2.29.43c.59.42.59 2.46 0 3-4.5-.17-8.4-.26-12.47-.26-4.24 0-8 .09-12.38.26-.68-.51-.68-2.55 0-3l2.29-.43c3.82-.67 4.33-1.27 4.33-9.07zm11.61 10.77c0 3 .26 3.22 5.26 3.22 3.05 0 4.84-.76 6.45-2.37 1.44-1.44 3-4.16 3-9.16 0-7.63-4.5-12.55-11.11-12.55-3.48 0-3.65.25-3.65 4.32zM795.5 69.27c0 6.92.45 7.44 3.84 8l2.06.37a2.09 2.09 0 0 1-.08 2.57c-4-.14-7.59-.22-11.05-.22s-7.22.08-11.19.22a2.09 2.09 0 0 1 0-2.57l2.06-.37c3.39-.59 3.83-1.11 3.83-8V42.16c0-6.93-.44-7.44-3.83-8l-2.06-.37a2.1 2.1 0 0 1 0-2.58c4 .15 7.66.22 11.19.22s7.15-.07 11.13-.22a2.1 2.1 0 0 1 0 2.58l-2.06.37c-3.39.59-3.84 1.1-3.84 8zM839.1 61.75c-3.76 8.92-5.67 14.74-7.37 18.86a4.92 4.92 0 0 1-2.58.59 3 3 0 0 1-2-.59c-.81-2-2.06-5.89-3.09-8.39l-11.93-30c-2.8-7.07-3.17-7.22-5.53-7.8l-2.94-.74a1.87 1.87 0 0 1 .29-2.51c3.76.08 6.19.22 10 .22 3.39 0 6.55-.07 11-.22.59.45.51 1.85.07 2.51l-2.21.44c-1.32.3-1.84.74-1.84 1.4s1.18 3.68 3 8.1l6.48 16.58 2.43 6.19c.59-1.26 1.77-3.76 2.65-6l2.8-6.93c1.84-4.64 5-12.89 5.89-15.39a9.58 9.58 0 0 0 .74-2.65c0-.52-.59-.81-2.36-1.26l-2.35-.51c-.59-.59-.59-2.14.29-2.51 3.46.15 6.26.22 9.06.22 2.51 0 4.72-.07 6.85-.22.59.3.66 2.07.15 2.51l-1.92.37c-2.06.37-3.31.88-4.27 2.43-1.62 2.43-3.46 6.55-6 12.52zM875.24 50.56c0 2.06.08 2.21 2.07 2.21h5.08c3.83 0 4.71-.52 5.45-4.05l.37-1.85c.51-.58 2.36-.58 2.72.08-.14 2.35-.22 5-.22 7.8s.08 5.46.22 7.81c-.36.67-2.21.74-2.72.08l-.37-1.84c-.74-3.54-1.62-4.13-5.45-4.13h-5.08c-2 0-2.07.08-2.07 2.28v8.77c0 3.39.3 5.75 1.18 7s2.36 1.91 7.74 1.91c6.41 0 8.91-.22 13-8.54a1.79 1.79 0 0 1 2.73.37 41.94 41.94 0 0 1-3.1 11.78c-3.9-.14-11-.22-17-.22h-9.58c-3.54 0-7.15.08-12.67.22a2.09 2.09 0 0 1 0-2.57l3.46-.52c3.32-.52 3.76-1 3.76-7.74V41.94c0-6.71-.44-7.15-3.76-7.81l-1.84-.37a1.85 1.85 0 0 1 .15-2.58c3.46.15 7.07.22 10.6.22h15.62c4.72 0 8.92-.07 9.87-.22.08 1.18.59 6.49 1 11.42-.29.81-2 1-2.73.29a17.2 17.2 0 0 0-2.79-5.81c-1.4-1.4-3.61-2.29-7.22-2.29h-5.9c-2.43 0-2.43.15-2.43 2.88zM908 43.34c0-7.37-.15-8.18-3.24-8.62l-2-.29a1.67 1.67 0 0 1 .15-2.58c5.52-.37 11.27-.67 18.27-.67 6.26 0 11.64 1 14.43 2.65 4.28 2.51 6.49 6.19 6.49 10.91 0 6.55-4.42 9.35-7.81 11-.74.36-.74.81-.37 1.62 4.86 9.87 7.88 15.39 11.42 18.41a9 9 0 0 0 4.93 2.07 1.39 1.39 0 0 1 .3 1.91 17.62 17.62 0 0 1-5.82.67c-6.78 0-11-2.44-14.29-7.74a92.52 92.52 0 0 1-5.75-11.42 3.73 3.73 0 0 0-3.9-2.58c-2.58 0-2.73.15-2.73 1.62v9.06c0 6.78.44 7.3 3.76 7.89l2 .37a2.35 2.35 0 0 1 0 2.57c-3.91-.09-7.29-.19-10.84-.19s-6.93.08-10.76.22a2.09 2.09 0 0 1 0-2.57l2-.37c3.32-.59 3.76-1.11 3.76-7.89zm10.09 9.35c0 2.58.22 2.8 4.57 2.8a7.08 7.08 0 0 0 5.6-2.06c1.25-1.25 2.65-3.61 2.65-8 0-6.63-3.9-10.9-9.65-10.9-3 0-3.17.22-3.17 3.76zM1024.46 24.9a113.09 113.09 0 0 0 1 13.23c-.34 1-2.63 1.36-3.22.59-2.29-7.88-7.72-12.12-15.94-12.12-9.41 0-19.5 8-19.5 24.93s9.75 26 19.92 26 15-7.38 17.3-13.15a2.44 2.44 0 0 1 3.23.6c-.6 6.27-2 11.36-3.23 13.31-4.58 1.27-10.6 3.14-17.21 3.14-8.31 0-16.79-1.95-22.81-6.45-6.11-4.66-10.77-11.7-10.77-22.21 0-10.35 4.41-17.64 10.26-22.47 6-5 14.67-7.55 23.49-7.55 8.66-.05 14.93 1.98 17.48 2.15zM1083.79 55.49c0 16.06-10.76 25.71-26.6 25.71-14.8 0-25.56-9.72-25.56-25.12 0-14.58 10.9-25.86 26.3-25.86s25.86 10.32 25.86 25.27zm-26.45-21.88c-9.06 0-13.92 8.48-13.92 20.78 0 9 3.17 23.42 15.17 23.42 9.65 0 13.41-9.43 13.41-21.36 0-12.6-5.52-22.84-14.66-22.84zM1104 67.79c0 3.47.29 5.82 1.25 7s2.28 1.84 7.66 1.84c6.7 0 8.76-.22 13.11-8.76.59-.74 2.29-.44 2.8.44a45.52 45.52 0 0 1-3.17 11.93c-3.9-.14-11-.22-17-.22h-9.87c-3.38 0-7.07.08-11.63.22a2 2 0 0 1-.23-2.57l2.81-.37c3.31-.44 3.75-1 3.75-7.89V42c0-6.85-.44-7.51-3.75-7.95l-2.14-.3a1.67 1.67 0 0 1 .15-2.58q5.74.22 11 .22c3.54 0 7.23-.07 10.91-.22a2.1 2.1 0 0 1 0 2.58l-1.92.3c-3.31.51-3.75 1.1-3.75 7.95zM1148.93 67.79c0 3.47.29 5.82 1.25 7s2.28 1.84 7.66 1.84c6.71 0 8.77-.22 13.12-8.76.58-.74 2.28-.44 2.79.44a45.13 45.13 0 0 1-3.17 11.93c-3.9-.14-11-.22-17-.22h-9.87c-3.39 0-7.07.08-11.64.22a2 2 0 0 1-.22-2.57l2.8-.37c3.31-.44 3.75-1 3.75-7.89V42c0-6.85-.44-7.51-3.75-7.95l-2.14-.3a1.67 1.67 0 0 1 .15-2.58q5.74.22 11 .22c3.54 0 7.22-.07 10.9-.22a2.1 2.1 0 0 1 0 2.58l-1.92.3c-3.31.51-3.75 1.1-3.75 7.95zM1193.84 50.56c0 2.06.08 2.21 2.07 2.21h5.09c3.83 0 4.71-.52 5.45-4.05l.37-1.85c.51-.58 2.36-.58 2.72.08-.15 2.35-.22 5-.22 7.8s.07 5.46.22 7.81c-.36.67-2.21.74-2.72.08l-.37-1.84c-.74-3.54-1.62-4.13-5.45-4.13h-5.08c-2 0-2.07.08-2.07 2.28v8.77c0 3.39.3 5.75 1.18 7s2.36 1.91 7.74 1.91c6.41 0 8.91-.22 13-8.54a1.79 1.79 0 0 1 2.73.37 41.6 41.6 0 0 1-3.1 11.78c-3.9-.14-11-.22-17-.22h-9.58c-3.53 0-7.14.08-12.67.22a2.09 2.09 0 0 1 0-2.57l3.47-.52c3.31-.52 3.75-1 3.75-7.74V41.94c0-6.71-.44-7.15-3.75-7.81l-1.85-.37a1.85 1.85 0 0 1 .15-2.58c3.46.15 7.07.22 10.6.22h15.62c4.72 0 8.91-.07 9.87-.22.08 1.18.59 6.49 1 11.42-.29.81-2 1-2.72.29a17 17 0 0 0-2.81-5.81c-1.4-1.4-3.6-2.29-7.21-2.29h-5.9c-2.43 0-2.43.15-2.43 2.88zM1267.56 71.7c0 3.09.15 4.57 1.55 4.86.29.3.21 1.55-.23 1.77a33.21 33.21 0 0 0-5.16 1.1 56.81 56.81 0 0 1-13 1.77 36.7 36.7 0 0 1-14.51-2.58c-8.62-3.46-14.52-11.64-14.52-22.24 0-9.21 4.13-17.31 13-22.25a36 36 0 0 1 17.24-3.91c8.17 0 12.23 1.77 14.58 1.77.22 2.21.3 7.37 1 11.86-.29.81-2.28.89-2.8.15-2.35-6.92-7-10.39-13.85-10.39-11.71 0-17.38 9.73-17.38 21.37 0 10.53 3.61 16.79 8.4 20a18 18 0 0 0 10.09 2.8c4.2 0 5.08-.81 5.08-5.59v-4.62c0-4-.44-4.42-4-4.93l-3.24-.44a1.67 1.67 0 0 1 0-2.58c5.23.14 8.84.22 12.45.22s7.15-.08 9.65-.22a2.1 2.1 0 0 1 0 2.58l-1.69.29c-2.21.37-2.65 1.11-2.65 5.08zM1291.69 50.56c0 2.06.08 2.21 2.07 2.21h5.08c3.83 0 4.71-.52 5.45-4.05l.37-1.85c.51-.58 2.35-.58 2.72.08-.15 2.35-.22 5-.22 7.8s.07 5.46.22 7.81c-.37.67-2.21.74-2.72.08l-.37-1.84c-.74-3.54-1.62-4.13-5.45-4.13h-5.08c-2 0-2.07.08-2.07 2.28v8.77c0 3.39.3 5.75 1.18 7s2.36 1.91 7.73 1.91c6.41 0 8.92-.22 13-8.54a1.79 1.79 0 0 1 2.73.37 41.94 41.94 0 0 1-3.1 11.78c-3.9-.14-11-.22-17-.22h-9.58c-3.53 0-7.14.08-12.67.22a2.09 2.09 0 0 1 0-2.57l3.46-.52c3.32-.52 3.76-1 3.76-7.74V41.94c0-6.71-.44-7.15-3.76-7.81l-1.84-.37a1.85 1.85 0 0 1 .15-2.58c3.46.15 7.07.22 10.6.22h15.62c4.72 0 8.91-.07 9.87-.22.08 1.18.59 6.49 1 11.42-.29.81-2 1-2.73.29a17 17 0 0 0-2.8-5.81c-1.4-1.4-3.61-2.29-7.22-2.29h-5.89c-2.43 0-2.43.15-2.43 2.88zM217.78 42c0-16 9.35-28.76 25.14-28.76 9.79 0 15.37 6.3 17.08 16.51l.49 2.93h8V13H267v18.18h-5.22l-.06-.3c-1.84-10.41-6.41-19.15-18.79-19.15-16.87 0-26.64 13.75-26.64 30.26v.19h1.49V42zm-96.06-1.44h-2l4.58-12.66 1.94 4.82.49-.09v-2.72l-2.5-6.23-6.64 18.37h4.15zM154.6 26c.59 1 .9 2.65 1.06 5.84V32h1.51v-.21c-.15-3.3-.5-5.28-1.26-6.59-1.29-2.21-5.13-2.71-8.08-2.95h-.2v1.45h.17c2.88.3 5.98.84 6.8 2.3zm15.74-3.76h-.21V48h1.49V23.8l.41.05c7.51.9 12.87 4.72 13.37 11.54v.18h1.5v-.21c-.59-9.19-8.66-12.57-16.56-13.17zm1.28 35.52h1c3.58.2 4.71.46 6.39 3.54h1.69l-.16-.29c-1.36-2.59-2.63-3.75-4.23-4.28a10 10 0 0 0-2.62-.44c-1-.06-2.07-.09-3.34-.18h-.21l-.08 17.12h1.49zm-57.24-6.88c-1.07 2.9-2.17 5.78-3.18 8.7-.4 1.17-.76 2.3-1.08 3.35a31.72 31.72 0 0 0-1.13 4.8v.22h1.5v-.17a32.69 32.69 0 0 1 1.2-4.89c.27-.89.58-1.83.92-2.82.92-2.68 1.94-5.36 2.76-7.59l.09-.24h17.59V50.7h-18.63zm5.94 28.43h-30v1.5h31.47v-5.1h-1.5v3.6zm35.15 0h-21.42v1.5h21.42zm28.58 9.12h-37.27v1.5h38.77v-5h-1.5zm38.5.88l-1.73-.08a114.47 114.47 0 0 1-13.15-.88A21.88 21.88 0 0 1 195.91 83h-2.09l.32.33a21.57 21.57 0 0 0 12.21 6.19c5.6 1 11.58 1 17.25 1.23h.17l1-5.15h-1.53zm46.95-30.37v.15c-.31 1.29-1 3.77-1 3.77a104.93 104.93 0 0 1-4.21 12l-.18.19a48.12 48.12 0 0 1-21.88 4.78c-14.66 0-28.56-5.76-36-17a34.25 34.25 0 0 1-5.44-16.17c-.06-.64-.1-1.3-.13-2v-1.49h-1.52c-2 3.51-5.17 6.17-9.23 8.39l-.18.09.1.18c1.95 3.41 4.13 7.24 6.64 11.07q1.38 2.12 2.89 4.19h1.9l-.24-.31c-.95-1.27-1.86-2.59-2.75-3.91C196.05 59.53 194 56 192 52.54l-.18-.31.31-.17a24.07 24.07 0 0 0 6.53-5.48l.57-.7.07.89a35.71 35.71 0 0 0 5.17 16.13c7.62 12.25 22.42 18.47 37.76 18.47a49.78 49.78 0 0 0 23.18-5.25v-.06c2.37-4.87 4-10.6 5.54-16.86l.05-.2h-1.5zM22.78 79.88h-.17c-8.73 0-17 .06-20.59.17.29-1.41 1.32-7.28 1.19-18.55v-.08l-1.52-.78-.52-.84-1-.23C.27 71.65.43 82 .43 82.13v.11h.11c.1 0 9.43-.29 19.61-.44h.05l.63-.89 1.83-.72.17-.09zM79.23 60v.08c.24 9.11.31 19 .35 20-.55-.07-5.7-.36-9.24-.36-5.06 0-10.89.09-12.2.16v.36l3 1 .78 1.48c7.95-.07 18.75 0 18.86 0h.1v-.1c0-.12.33-12.47.48-23.18v-.15zM80.85 1.26c-.1 0-10.75.17-22.36.06h-.27l.19.19c.76.78 1 1.18 1.28 1.4l.9 1.45h.19C62.86 4 62.83 4 63 3.94a39.92 39.92 0 0 1 5.31-.54 92.33 92.33 0 0 1 11.16.65c0 1-.35 9.2-.8 12.08v.49l1.06.8.57 1h.43c.18-8.26.27-17 .27-17v-.16zM29.26 1.41c-9.2 0-18.91.17-21.18.35-1.25.11-3.28.29-4.42.29H1.17L.53 2v.17c0 .13.83 12.47-.12 15.12-.27.76-.16 6 0 13.35.09 4.66.19 9.98.23 15.42L1.78 46l1-2.31a383.14 383.14 0 0 1 .33-39c1.33 0 14.93 0 27.87.21h.14l2.65-3.5z"/><path class="a" d="M267.12 54.88v.11c-4.48 10.73-9.58 20.37-22.75 20.37-14.31 0-29.59-13.36-29.59-33.36 0-15.49 8.93-32.16 28.55-32.16 11.07 0 18.33 6.88 20.43 19.35v.09h1.7V12.67h-.05c-6.09-3.6-13.5-5.43-22-5.43-26.58 0-40.49 18.1-40.49 36 0 10.67 4.15 19.63 12 25.91 7.13 5.72 17 8.87 27.71 8.87a46.13 46.13 0 0 0 20.49-4.32 95.62 95.62 0 0 0 5.53-17.95v-.09z"/><path class="a" d="M187.77 52l-.33-.58-.43-.6c8.45-3.77 12.37-9 12.37-16.47a14.18 14.18 0 0 0-3.85-10c-4.11-4.3-11.24-6.47-21.21-6.47h-2.31l-24.56.8v1.61h.1c11 1 11.62 3 11.62 18.53v31.1c0 1.53-.09 3-.17 4.24-4-1.85-5.44-5.09-7.33-10.19L129.56 5.08l-.12.14a18.54 18.54 0 0 1-7.27 5.38l-.12.05.07.1c.88 1.52.16 3.43-.61 5.46-.16.44-.34.91-.49 1.37l-6 16.33-11.34 29.56c-3.05 7.68-3.87 9.74-12.85 12.16h-.08v1.7h27.67v-1.7h-.1c-.57-.09-1.17-.17-1.8-.25-4.25-.54-9.53-1.21-9.53-6.46 0-3.69 2.65-10.82 4.58-16 .58-1.53 1.11-3 1.5-4.11h22.7c.35.95.72 1.94 1.11 3 2.47 6.55 5.27 14 5.27 17.58 0 4.21-3.6 5.39-7.63 6.3h-.09v1.7h24.22c-.9 4.64-3.58 6.31-11.8 7.41h-.1v1.7h35.39v-1.7h-.09c-7.36-1-10.4-2-12.05-4s-1.79-5.12-1.79-10.82v-16a37.93 37.93 0 0 0 4.44.43c4.21.22 7 .37 10 6.61a88.94 88.94 0 0 0 14 20.07c5.28 5.46 12.36 5.75 21.31 6.12l3 .12h.1l.34-1.69h-.11C205 82.21 195.44 65.47 187.77 52zm1.07-15.54c0 10.54-10.34 15.39-20.63 15.54V20.24h.22c9.87 0 20.41 4.26 20.41 16.23zM134.38 44h-19.52l9.27-25.64zM84.08 48.82l.46-1.37L82 46.38l-.76-2.83 1.89-.68.51-2.9-1-1.46.69-2.07.07-1.61-2.12-.6-1-2.16 1.72-2.2-.15-2.7-2-.76.76-1.14V23.2l-2.86-1.46 1.12-1.06-.68-1.68-2.56-.76-.15-2.54-2.1-1.07-2.59.47-1 1.74-3-.29-.59.6-2.43-1.82-.07-.94.46-2.75-2.24-.64.08-2-2.2-.78-1.35.08-.07-1.5.89-1.8-1.05-1-1.28.23-.3-1.69-2.56-1.17-1.82 1-3.46.93-.92-1.38-2.78-.08-.37-.93L42.38 0l-6 3.53-.74-.31-2.75 3.07.45 2.36-2 2.31.08 1.9-2 1.46-1.52-1.46-3.15.78-.54 1.9h-1.36l-1.2-1.66-5 2.13L15 14.87l-2.4.9-.67 3.3-2.2.76-2.26 5.38 1.58 1.9.37 5.14-1.8.39-1.07 3.81 2.45.91.11 2.64-1.79 2L7 44H5l-1.39 4.24-2.1.08-.46 2.14L0 52l.39 3.3h1.94l1.06 4.13 2.86.86 2.28-.47 2.41-3 .3-2.07 3-.6.76 1.45-2 1.76.39 3.82 2.86 2 .74 3 3.61-.62 1 .15.3.91 2.48-2L26.25 63l1-2.75-.69-.62L25.18 58l.82-3.18-2-1.23-.66-3.42 1.79-2.47 1.2-1.14 1.51.08 6.72 5.19.67 3.37 3.1 1 .15 11.12-1.14 10.48-3.41 3.27-7.68.32-3.47 1.37-.39.55 3.78-.93-.23 1.32-2.12 1.3.93-.12 2.61-.88 1.13-1.9 4.69-.1.89 1.45-2 1.56 3-.88 1-1.76 4.08-1.46 4.6 1.61 4.07-1.06h3.88l2.87.54.76.76 3.61.08.3-.47-3.78-.29-.52-.78-3.71-.75-.43-.94-5.3-.44-1.5-7.1.54-4.52.46-1.61-1.28-7.73 1-2.6L47 54.23l1.13-2.52 3.33-.85 2.54-.08L58.42 53l1 4L63 60.05l-1.59 1-.23 1.14.84 2.16 3.08.76 3.32-1.23.54-2.6 1.51-.62 1.44.55 2.18-.76 1.31-1.85 3.24.08L82 56.76l1.72-2.67-.59-1.85 1.06-1.53zm-26.3-12.14l.36-1.45 1.28.46-.13 2.08-2.81 3.51h-2.4l1.35-4.6.84-.52zm-4-7.32l.08 2.91 1.73-.62-1.43 4.74-3.4.83-1.64-.46 2.17-5.12zm-15.4.64l.77-3.67 1 3.07-.3 5.19-1.52 2.83-2.1-2.2-.3-2.7zm-8.44-1.07l.46-.7-.69-2.23.3-.15L31.29 28l2.79 1.38.07 3.45 2.41 6.52.15 2.28-4.45-3.81-1.87-7.73-1.67-1.19h1.22zm-1.05 14.7l-1.82-1.13-1.58 1.5-.82 1.32-1.15-1.61-4 .6.48-1.65 1.2-.6.46-.78-1-1.3.77-1.52 1.13.46v1.14l1.1-.06.34-2.69.61-1.06L26 39.47v.91l3.38.83zm7.92 7.35l-1-2.63-5.14-3.19V41l.22-1.46-1.12-2.62v-1.7l-3-2.91.92-.67.31-1.46 1.74.47 1.51 7 .54 1.07 4.53 5.06.59 2.13L38.38 47l.62 3.37zm2.93-10.72l-.89-1.38 1.67-3.66.58-2.39-.1-4.64 1.25-1.85 1.7.79-.95 4.28-.89 4.52zm4.15-6.5l2.5-.54.67-1.61 2 .75L46 38.61l-3.25.7zm1.28 7.71l3.1-1.53-.27-1.41.92.31 3.53-.55.85-.91 1.28-.15-1.89 4.6-6 .31-2.25 2-.31-.67zm3.63 4.83l-.07 1.38-4.08 2.07-.38-3.06 1.58-1.46 1.59-1.84 2.94-.55zm7.39 2.05L54 47.64l-3.54.15.16-3.07 1-1.92.82-.08 1.43.31.62 1.69 1.28.32.82 2.67zm6-8l-1.49 1.3.84 1.35-1.43.55-1 1v1.3l1.51.85-.07.67-3.32.25-.77-3.9-1.54-1.22 1.87-.36L59.58 39l3.71-.7.52 1.25zM.14 97.8h146.72v2.54H.14zM224.98 97.93H1316.3v2.54H224.98z"/></svg>